<svg id="Layer_1" data-name="Layer 1" xmlns="http://www.w3.org/2000/svg" viewBox="0 0 98.52 126.5"><defs><style>.cls-1{fill:none;}.cls-1,.cls-2{stroke:#2094ad;stroke-linecap:round;stroke-linejoin:round;stroke-width:5px;}.cls-2{fill:#fff;}.cls-3{fill:#2094ad;}</style></defs><polyline class="cls-1" points="47.37 115.89 2.5 115.89 2.5 2.5 87.54 2.5 87.54 75.72"/><line class="cls-2" x1="45.02" y1="22.91" x2="18.19" y2="22.91"/><line class="cls-2" x1="72.58" y1="38.5" x2="18.19" y2="38.5"/><line class="cls-2" x1="72.58" y1="51.89" x2="18.19" y2="51.89"/><path class="cls-3" d="M67.9,65.27A30.62,30.62,0,1,0,98.52,95.89,30.61,30.61,0,0,0,67.9,65.27ZM88.09,98.54H67.9A2.5,2.5,0,0,1,65.4,96s0,0,0-.06,0,0,0-.06V75.74a2.5,2.5,0,1,1,5,0v17.8H88.09a2.5,2.5,0,0,1,0,5Z"/></svg>