<svg id="Layer_1" data-name="Layer 1" xmlns="http://www.w3.org/2000/svg" viewBox="0 0 98.15 126.5"><defs><style>.cls-1{fill:none;}.cls-1,.cls-2{stroke:#fff;stroke-linecap:round;stroke-linejoin:round;stroke-width:5px;}.cls-2,.cls-3{fill:#fff;}</style></defs><polyline class="cls-1" points="47.37 115.89 2.5 115.89 2.5 2.5 87.54 2.5 87.54 75.72"/><line class="cls-2" x1="44.66" y1="22.91" x2="17.82" y2="22.91"/><line class="cls-2" x1="72.22" y1="38.5" x2="17.82" y2="38.5"/><line class="cls-2" x1="72.22" y1="51.89" x2="17.82" y2="51.89"/><path class="cls-3" d="M67.54,65.27A30.62,30.62,0,1,0,98.15,95.89,30.61,30.61,0,0,0,67.54,65.27Zm17.13,22.9-19,19a2.49,2.49,0,0,1-3.54,0l-.05-.06-.06,0L50.41,95.37a2.5,2.5,0,1,1,3.53-3.54l10,10,17.2-17.19a2.5,2.5,0,0,1,3.53,3.53Z"/></svg>