<svg id="Layer_1" data-name="Layer 1" xmlns="http://www.w3.org/2000/svg" viewBox="0 0 98.15 126.5"><defs><style>.cls-1{fill:none;}.cls-1,.cls-3{stroke:#2094ad;stroke-linecap:round;stroke-linejoin:round;stroke-width:5px;}.cls-2{fill:#2094ad;}.cls-3{fill:#fff;}</style></defs><polyline class="cls-1" points="47.37 115.89 2.5 115.89 2.5 2.5 87.54 2.5 87.54 75.72"/><path class="cls-2" d="M67.54,65.27A30.62,30.62,0,1,0,98.15,95.89,30.61,30.61,0,0,0,67.54,65.27ZM81,98.54H70v10.92a2.5,2.5,0,0,1-5,0V98.54H54.12a2.5,2.5,0,1,1,0-5H65V82.63a2.5,2.5,0,0,1,5,0V93.54H81a2.5,2.5,0,0,1,0,5Z"/><line class="cls-3" x1="44.66" y1="22.91" x2="17.82" y2="22.91"/><line class="cls-3" x1="72.22" y1="38.5" x2="17.82" y2="38.5"/><line class="cls-3" x1="72.22" y1="51.89" x2="17.82" y2="51.89"/></svg>